<svg xmlns="http://www.w3.org/2000/svg" xml:space="preserve" width="792" height="612"><path d="M93.344 101.432c0-6.854 2.616-9.977 8.866-9.977s8.867 3.123 8.867 9.977v17.435c0 6.853-2.617 9.978-8.867 9.978-6.25 0-8.866-3.125-8.866-9.978zm11.787-1.563c0-2.368-1.056-3.477-2.921-3.477-1.864 0-2.921 1.108-2.921 3.477v20.561c0 2.366 1.057 3.477 2.921 3.477 1.865 0 2.921-1.11 2.921-3.477zM118.992 87.726c2.817 0 5.137 2.319 5.137 5.14 0 2.82-2.32 5.14-5.137 5.14-2.825 0-5.142-2.319-5.142-5.14 0-2.821 2.317-5.14 5.142-5.14zm0 7.76a2.604 2.604 0 0 0 2.617-2.621 2.604 2.604 0 0 0-2.617-2.621 2.605 2.605 0 0 0-2.625 2.621c0 1.46 1.16 2.621 2.625 2.621zM124.945 128.34l-3.478 6.247h-2.669l2.465-6.247H119v-5.946h5.945zM131.987 101.432c0-6.854 2.621-9.977 8.871-9.977 6.246 0 8.87 3.123 8.87 9.977v17.435c0 6.853-2.624 9.978-8.87 9.978-6.25 0-8.871-3.125-8.871-9.978zm11.796-1.563c0-2.368-1.06-3.477-2.925-3.477-1.864 0-2.925 1.108-2.925 3.477v20.561c0 2.366 1.061 3.477 2.925 3.477 1.865 0 2.925-1.11 2.925-3.477zM157.635 87.726c2.824 0 5.141 2.319 5.141 5.14 0 2.82-2.317 5.14-5.141 5.14-2.821 0-5.138-2.319-5.138-5.14 0-2.821 2.317-5.14 5.138-5.14zm0 7.76a2.605 2.605 0 0 0 2.624-2.621 2.605 2.605 0 0 0-2.624-2.621 2.6 2.6 0 0 0-2.617 2.621 2.601 2.601 0 0 0 2.617 2.621zM395.936 489.757c-4.102 0-7.434-3.34-7.434-7.445h2.049c0 2.977 2.417 5.397 5.386 5.397a5.402 5.402 0 0 0 5.394-5.397h2.049a5.405 5.405 0 0 0 5.401 5.397 5.4 5.4 0 0 0 5.393-5.397h2.05a5.4 5.4 0 0 0 5.393 5.397 5.402 5.402 0 0 0 5.395-5.397h2.048c0 4.105-3.337 7.445-7.442 7.445-2.752 0-5.129-1.52-6.418-3.742-1.288 2.223-3.665 3.742-6.417 3.742-2.753 0-5.138-1.52-6.427-3.746-1.291 2.226-3.668 3.746-6.42 3.746zm40.476 14.801c-2.753 0-5.13-1.518-6.418-3.742-1.288 2.225-3.665 3.742-6.418 3.742s-5.13-1.518-6.418-3.742c-1.288 2.225-3.673 3.742-6.426 3.742-4.102 0-7.435-3.34-7.435-7.443h2.05c0 2.975 2.416 5.395 5.385 5.395a5.404 5.404 0 0 0 5.401-5.395h2.049a5.401 5.401 0 0 0 5.394 5.395 5.4 5.4 0 0 0 5.393-5.395h2.049a5.401 5.401 0 0 0 5.393 5.395 5.401 5.401 0 0 0 5.394-5.395h2.049c0 4.103-3.336 7.443-7.442 7.443zM466.253 460.524h.004v76.4h-.004zM689.153 339.409a5.399 5.399 0 0 0 5.391-5.398h2.048c0 4.105-3.337 7.447-7.439 7.447-2.752 0-5.129-1.518-6.418-3.744-1.288 2.226-3.665 3.744-6.418 3.744-2.749 0-5.126-1.518-6.413-3.744-1.289 2.226-3.67 3.744-6.423 3.744-4.101 0-7.438-3.342-7.438-7.447h2.049a5.397 5.397 0 0 0 5.389 5.398 5.402 5.402 0 0 0 5.398-5.398h2.048a5.398 5.398 0 0 0 5.39 5.398 5.401 5.401 0 0 0 5.393-5.398h2.05a5.402 5.402 0 0 0 5.393 5.398zm-14.792-14.797c2.969 0 5.382-2.42 5.382-5.397h2.048c0 4.105-3.333 7.445-7.43 7.445-2.753 0-5.134-1.518-6.423-3.742-1.287 2.225-3.664 3.742-6.413 3.742-2.754 0-5.133-1.518-6.422-3.744-1.288 2.227-3.669 3.744-6.422 3.744-4.102 0-7.438-3.34-7.438-7.445h2.049a5.398 5.398 0 0 0 5.39 5.397 5.403 5.403 0 0 0 5.398-5.397h2.048a5.403 5.403 0 0 0 5.398 5.397c2.973 0 5.39-2.42 5.39-5.397h2.049a5.4 5.4 0 0 0 5.396 5.397zm-45.869-20.193c0 2.975 2.416 5.394 5.385 5.394 2.977 0 5.402-2.419 5.402-5.394h2.049a5.4 5.4 0 0 0 5.397 5.394 5.396 5.396 0 0 0 5.39-5.394h2.049a5.401 5.401 0 0 0 5.397 5.394 5.4 5.4 0 0 0 5.394-5.394h2.049c0 4.104-3.337 7.441-7.442 7.441-2.753 0-5.134-1.516-6.421-3.74-1.289 2.225-3.666 3.74-6.415 3.74-2.752 0-5.133-1.518-6.422-3.742-1.287 2.225-3.672 3.742-6.426 3.742-4.101 0-7.434-3.338-7.434-7.441zM107.376 382.233c-4.102 0-7.438-3.34-7.438-7.443h2.049a5.397 5.397 0 0 0 5.39 5.395 5.4 5.4 0 0 0 5.397-5.395h2.048a5.403 5.403 0 0 0 5.398 5.395 5.396 5.396 0 0 0 5.389-5.395h2.049a5.4 5.4 0 0 0 5.393 5.395c2.977 0 5.402-2.418 5.402-5.395h2.048c0 4.104-3.341 7.443-7.45 7.443-2.749 0-5.129-1.516-6.418-3.742-1.289 2.227-3.665 3.742-6.414 3.742-2.749 0-5.134-1.516-6.422-3.742-1.287 2.227-3.668 3.742-6.421 3.742zm14.8 14.797c-4.101 0-7.438-3.338-7.438-7.44h2.048a5.4 5.4 0 0 0 5.39 5.391 5.397 5.397 0 0 0 5.393-5.391h2.049c0 2.971 2.425 5.391 5.401 5.391a5.4 5.4 0 0 0 5.39-5.391h2.049a5.4 5.4 0 0 0 5.394 5.391c2.973 0 5.39-2.42 5.39-5.391h2.048c0 4.102-3.337 7.44-7.438 7.44-2.749 0-5.129-1.518-6.419-3.74-1.288 2.223-3.665 3.74-6.414 3.74-2.753 0-5.137-1.518-6.425-3.742-1.288 2.225-3.665 3.742-6.418 3.742zm45.862 7.362h2.049c0 4.1-3.337 7.435-7.435 7.435-2.753 0-5.138-1.517-6.426-3.738-1.288 2.221-3.665 3.738-6.417 3.738-2.745 0-5.126-1.516-6.41-3.738-1.292 2.223-3.673 3.738-6.426 3.738-4.105 0-7.442-3.336-7.442-7.435h2.048c0 2.969 2.421 5.387 5.394 5.387 2.977 0 5.402-2.418 5.402-5.387h2.048a5.394 5.394 0 0 0 5.386 5.387 5.396 5.396 0 0 0 5.394-5.387h2.049c0 2.969 2.424 5.387 5.401 5.387a5.395 5.395 0 0 0 5.385-5.387zM466.253 415.921h.004v42.955h-.004zM466.252 75.081h.006v32.767h-.006zM324.923 141.831H189.556v1.649h133.959zM497.125 459.296c0-.145.072-.275.084-.42H467.28v1.648h30.09c-.097-.408-.245-.8-.245-1.228zM328.412 458.876h9.851v1.648h-9.851z"/><path d="M715.529 75.078v66.753h-109.4v1.648h109.4v104.034h-76.546l1.648 1.648h74.898v104.036H613.231c.185.529.312 1.078.332 1.646h101.966v104.031h-95.236l-1.649 1.648h96.885v76.4h-109.4v3.299h112.697V71.777H606.129v3.301zM73.178 540.224h115.354V372.255h-1.641v86.621H76.475V354.845h80.928v-1.646H76.475V249.162h88.83v-1.648h-88.83V143.48h110.416v79.184l1.641-1.645V71.777H73.178Zm113.713-79.7v76.4H76.475v-76.4zm0-385.446v66.753H76.475V75.078ZM504.19 143.48h99.275v82.718l1.64 1.64V71.777H467.28v3.301h136.185v66.753H502.544zM189.556 75.078h136.192v65.789l1.64-1.923V71.777H189.556zM325.748 536.925H189.556v3.299h137.832V440.47l-1.64 1.64v16.766H189.556v1.648h136.192zM421.479 460.524h43.125v76.401H328.412v3.299h137.845v-3.299h-.004v-76.401h.004v-1.648h-.004v-42.959l-1.649-1.648v44.607h-41.48zM466.257 71.777H328.412v3.301h136.192v34.42l1.649-1.648V75.078h.004zM603.465 342.578l1.64 1.64v-27.785l-1.64 1.64zM603.465 536.925H467.28v3.299h137.825v-66.221c-.481.451-1.02.84-1.641 1.094v61.828z"/><path d="M633.877 311.86c2.754 0 5.139-1.518 6.426-3.742 1.289 2.225 3.67 3.742 6.422 3.742 2.749 0 5.126-1.516 6.415-3.74 1.287 2.225 3.668 3.74 6.421 3.74 4.106 0 7.442-3.338 7.442-7.441h-2.049a5.4 5.4 0 0 1-5.394 5.394 5.4 5.4 0 0 1-5.397-5.394h-2.049a5.396 5.396 0 0 1-5.39 5.394 5.4 5.4 0 0 1-5.397-5.394h-2.049c0 2.975-2.425 5.394-5.402 5.394-2.969 0-5.385-2.419-5.385-5.394h-2.049c.001 4.103 3.334 7.441 7.435 7.441zM661.525 324.612a5.403 5.403 0 0 1-5.398-5.397h-2.048a5.403 5.403 0 0 1-5.398 5.397 5.398 5.398 0 0 1-5.39-5.397h-2.049c0 4.105 3.337 7.445 7.438 7.445 2.753 0 5.134-1.518 6.422-3.744 1.289 2.227 3.668 3.744 6.422 3.744 2.749 0 5.126-1.518 6.413-3.742 1.289 2.225 3.67 3.742 6.423 3.742 4.097 0 7.43-3.34 7.43-7.445h-2.048c0 2.977-2.413 5.397-5.382 5.397a5.402 5.402 0 0 1-5.397-5.397h-2.049a5.397 5.397 0 0 1-5.389 5.397zM676.317 339.409a5.399 5.399 0 0 1-5.39-5.398h-2.048a5.402 5.402 0 0 1-5.398 5.398 5.398 5.398 0 0 1-5.389-5.398h-2.049c0 4.105 3.337 7.447 7.438 7.447 2.753 0 5.134-1.518 6.423-3.744 1.287 2.226 3.664 3.744 6.413 3.744 2.753 0 5.13-1.518 6.418-3.744 1.289 2.226 3.666 3.744 6.418 3.744 4.102 0 7.439-3.342 7.439-7.447h-2.048a5.398 5.398 0 0 1-5.391 5.398 5.4 5.4 0 0 1-5.393-5.398h-2.05a5.4 5.4 0 0 1-5.393 5.398zM408.78 489.757c2.752 0 5.129-1.52 6.417-3.742 1.289 2.223 3.666 3.742 6.418 3.742 4.105 0 7.442-3.34 7.442-7.445h-2.048a5.402 5.402 0 0 1-5.395 5.397 5.4 5.4 0 0 1-5.393-5.397h-2.05a5.4 5.4 0 0 1-5.393 5.397 5.404 5.404 0 0 1-5.401-5.397h-2.049a5.402 5.402 0 0 1-5.394 5.397c-2.969 0-5.386-2.42-5.386-5.397h-2.049c0 4.105 3.333 7.445 7.434 7.445 2.752 0 5.129-1.52 6.417-3.746 1.293 2.226 3.677 3.746 6.43 3.746zM441.806 497.114a5.401 5.401 0 0 1-5.394 5.395 5.4 5.4 0 0 1-5.393-5.395h-2.049a5.401 5.401 0 0 1-5.393 5.395 5.401 5.401 0 0 1-5.394-5.395h-2.049a5.405 5.405 0 0 1-5.401 5.395c-2.969 0-5.385-2.42-5.385-5.395h-2.05c0 4.104 3.333 7.443 7.435 7.443 2.753 0 5.138-1.518 6.426-3.742 1.288 2.225 3.665 3.742 6.418 3.742s5.13-1.518 6.418-3.742c1.288 2.225 3.665 3.742 6.418 3.742 4.105 0 7.442-3.34 7.442-7.443zM120.22 382.233c2.749 0 5.125-1.516 6.414-3.742 1.288 2.227 3.669 3.742 6.418 3.742 4.109 0 7.45-3.34 7.45-7.443h-2.048c0 2.977-2.425 5.395-5.402 5.395a5.4 5.4 0 0 1-5.393-5.395h-2.049a5.396 5.396 0 0 1-5.389 5.395 5.403 5.403 0 0 1-5.398-5.395h-2.048a5.4 5.4 0 0 1-5.397 5.395 5.397 5.397 0 0 1-5.39-5.395h-2.049c0 4.104 3.337 7.443 7.438 7.443 2.752 0 5.133-1.516 6.421-3.742 1.288 2.227 3.673 3.742 6.422 3.742zM135.02 397.03c2.749 0 5.126-1.518 6.414-3.74 1.289 2.223 3.67 3.74 6.419 3.74 4.101 0 7.438-3.338 7.438-7.44h-2.048a5.397 5.397 0 0 1-5.39 5.391 5.4 5.4 0 0 1-5.394-5.391h-2.049a5.4 5.4 0 0 1-5.39 5.391c-2.977 0-5.401-2.42-5.401-5.391h-2.049a5.397 5.397 0 0 1-5.393 5.391 5.4 5.4 0 0 1-5.39-5.391h-2.048c0 4.102 3.337 7.44 7.438 7.44 2.753 0 5.13-1.518 6.418-3.742 1.288 2.225 3.672 3.742 6.425 3.742zM157.251 404.392h-2.049a5.396 5.396 0 0 1-5.394 5.387 5.394 5.394 0 0 1-5.386-5.387h-2.048c0 2.969-2.425 5.387-5.402 5.387-2.973 0-5.394-2.418-5.394-5.387h-2.048c0 4.1 3.337 7.435 7.442 7.435 2.752 0 5.133-1.516 6.426-3.738 1.284 2.223 3.665 3.738 6.41 3.738 2.753 0 5.129-1.517 6.417-3.738 1.289 2.221 3.673 3.738 6.426 3.738 4.098 0 7.435-3.336 7.435-7.435h-2.049a5.394 5.394 0 0 1-5.385 5.387c-2.977-.001-5.401-2.419-5.401-5.387zM315.809 367.997a14.954 14.954 0 0 1-7.082-10c-1.176-6.029-3.257-11.733-6.19-16.945-2.037-3.615-6.35-10.053-13.68-15.984h-11.483v.771c9.686 5.744 14.98 13.366 17.232 17.359 4.454 7.916 6.558 17.25 6.086 26.998-.152 3.182 1.128 6.506 3.425 8.891a11.856 11.856 0 0 0 8.49 3.607c2.009 0 4.001-.521 5.758-1.506a71.458 71.458 0 0 1 9.023-4.258v-7.477c-3.861 1.081-8.106.585-11.579-1.456zM276.069 325.067c.048.025.089.054.137.078v-.078zM300.196 228.141a11.78 11.78 0 0 0-11.371 8.801 40.855 40.855 0 0 1-2.737 7.374c-3.961 8.18-12.315 18.547-29.648 21.485-.816.143-1.608.366-2.36.663-4.061 1.606-8.047 2.612-11.408 3.385a11.738 11.738 0 0 0-7.926 6.222 81.146 81.146 0 0 1-3.017 5.462c-3.285 5.413-1.621 12.602 3.705 16.022 6.342 4.075 11.063 9.146 14.436 15.497a11.823 11.823 0 0 0 8.602 6.125c2.168.336 4.193.803 6.138 1.328v-7.096a14.897 14.897 0 0 1-9.091-6.336 48.819 48.819 0 0 0-4.333-5.649 14.957 14.957 0 0 1-2.996-14.698 14.961 14.961 0 0 1 11.283-9.883 56.727 56.727 0 0 0 5.138-1.276v-7.54h11.596V257.25h1.168v10.777h2.648c7.098-5.273 11.536-11.782 14.26-17.403a55.57 55.57 0 0 0 .932-2.043 14.917 14.917 0 0 1 13.677-9.024l18.497-.134v-11.429zM499.971 361.159a52.508 52.508 0 0 1 6.679 6.908 11.798 11.798 0 0 0 6.628 4.141c3.994.893 7.76 2.16 11.185 3.764 3.793 1.791 8.374 1.393 11.795-1.027a11.83 11.83 0 0 0 4.949-10.76c-.392-4.07-.525-8.309-.392-12.598.789-25.952 8.974-47.746 24.331-64.779 3.305-3.669 3.813-9.645 1.204-14.208a77.41 77.41 0 0 1-2.35-4.468 11.676 11.676 0 0 0-5.009-5.199c-19.441-10.451-39.463-31.835-46.857-45.655a60.166 60.166 0 0 1-3.597-8.024 11.732 11.732 0 0 0-7.043-7.076c-9.977-3.657-16.496-9.654-19.629-12.538a11.742 11.742 0 0 0-4.369-2.548c-2.957-.95-6.586-1.833-10.216-2.511v11.751c.425.056.849.034 1.27.126 1.012.227 2.016.469 2.956.71a14.976 14.976 0 0 1 6.158 3.287c5.273 4.676 10.675 8.238 16.517 10.887a14.928 14.928 0 0 1 7.491 7.589 67.884 67.884 0 0 0 2.421 4.96c6.993 13.063 24.347 32.886 43.991 45.501a14.957 14.957 0 0 1 6.614 9.853 14.979 14.979 0 0 1-2.665 11.565c-5.817 7.898-10.406 16.606-13.743 26.054v8.205h-2.514c-1.908 7.164-3.176 14.697-3.749 22.6-.416 5.647-4.081 10.662-9.334 12.773a14.924 14.924 0 0 1-5.559 1.074c-3.712 0-7.27-1.371-10.015-3.861-.403-.359-.816-.725-1.231-1.086-10.027-8.582-22.303-13.121-35.495-13.121-1.061 0-2.088.052-3.113.111v6.772a46.538 46.538 0 0 1 3.113-.113c10.984-.002 21.211 3.781 29.578 10.941zM378.748 220.21c3.789-4.159 9.854-5.865 15.244-4.275 4.43 1.3 9.011 2.034 13.652 2.254a25.777 25.777 0 0 1 1.648-11.403c-6.502-.148-12.836-1.515-18.833-4.157a11.802 11.802 0 0 0-14.416 4.056c-10.795 15.508-26.56 20.116-37.883 21.25l-9.748.054v11.426l10.715-.078c9.083-.926 26.444-4.647 39.621-19.127zM463.211 183.903a11.843 11.843 0 0 0-9.767 3.127c-2.584 2.457-5.129 4.586-7.657 6.564a25.72 25.72 0 0 1 5.709 4.289c.961.96 1.797 1.99 2.572 3.053.497-.412.997-.772 1.493-1.2 2.941-2.543 6.829-3.737 10.695-3.505v-11.833a91.15 91.15 0 0 0-3.045-.495zM445.534 348.507l-.487.178c-.661.242-1.293.475-1.881.67a14.6 14.6 0 0 1-5.262.742c-18.661-.781-35.902 5.828-47.95 18.353a14.966 14.966 0 0 1-10.759 4.58c-2.205 0-4.333-.475-6.33-1.408-7.73-3.615-16.141-5.449-24.995-5.449-6.678 0-13.043 1.004-19.458 3.037v7.324c6.459-2.387 12.892-3.584 19.458-3.584 10.087 0 19.633 2.859 27.612 8.268a11.728 11.728 0 0 0 6.602 2.031c3.841 0 7.446-1.871 9.651-5.006 9.578-13.615 25.455-21.422 43.561-21.422 1.235 0 2.452.033 3.517.094.224.012.452.018.681.018 2.84 0 5.697-.949 9.135-2.188 4.253-1.521 10.358-3.684 17.629-4.324v-6.812c-8.823.662-16.122 3.255-20.724 4.898z"/><path d="M499.078 333.298c3.165 1.531 7.059 1.531 10.239.008a11.717 11.717 0 0 0 6.373-8.012c.016-.077.045-.148.062-.227H467.28v1.258c.265-.004.513-.027.78-.027 10.96 0 21.395 2.353 31.018 7zM310.095 325.067c2.329 3.09 4.038 5.793 5.042 7.576a72.752 72.752 0 0 1 4.646 9.946c1.308 3.465 4.181 6.056 7.606 7.104v-24.627h-17.294zM315.164 256.677a11.838 11.838 0 0 0-10.15 5.856 66.462 66.462 0 0 1-3.601 5.493h25.975V256.65ZM472.614 253.739h-5.334v14.287h48.963c-13.789-12.634-24.495-26.512-29.593-36.029a89.137 89.137 0 0 1-1.013-1.948 11.702 11.702 0 0 0-5.037-5.131 77.76 77.76 0 0 1-9.866-6.166 11.885 11.885 0 0 0-3.454-1.725v32.615h5.334zM463.78 216.487c-1.688 0-3.31.382-4.814 1.063-.343 6.093-2.811 12.086-7.47 16.744a281.993 281.993 0 0 0-14.292 15.348h29.053v-32.861c-.809-.174-1.633-.294-2.477-.294zM328.412 325.067v24.871c.773.16 1.557.273 2.361.273.633 0 1.272-.053 1.904-.154a80.858 80.858 0 0 1 12.788-1.018c8.555 0 16.833 1.33 24.607 3.953 3.846 1.285 8.219.461 11.3-2.105 14.136-11.763 32.054-17.98 51.814-17.98l.604.004c1.412 0 2.757-.23 4.029-.682 5.146-1.839 15.629-5.534 28.436-5.868v-1.294z"/><path d="M466.257 268.026v-14.287h-32.094v-.537c-.072.085-.148.172-.22.258a1644.075 1644.075 0 0 0-18.13-18.434c-2.536.244-5.098.408-7.698.408-4.749 0-9.511-.446-14.147-1.328-3.589-.681-7.366.372-10.075 2.812-16.241 14.599-35.458 18.467-45.47 19.476-.375.04-.816.072-1.239.099l-2.069.104c-.472.023-.916.04-1.392.04l-5.31.012v11.378h137.844zM492.311 368.96a38.854 38.854 0 0 1 7.111 8.029 11.378 11.378 0 0 0 7.729 4.898c11.18 1.691 19.534 6.395 24.827 13.979a11.353 11.353 0 0 0 6.209 4.414c2.346.658 4.595 1.6 6.68 2.793a11.388 11.388 0 0 0 5.608 1.479h.068a11.26 11.26 0 0 0 8.019-3.312 11.254 11.254 0 0 0 3.305-8.006c0-2.225-.636-4.363-1.84-6.193-5.434-10.721-7.847-22.551-7.434-36.26.816-26.686 9.804-47.43 27.468-63.419a11.235 11.235 0 0 0 3.717-7.906 11.394 11.394 0 0 0-3.016-8.197 30.007 30.007 0 0 1-4.178-5.683c-1.4-2.442-2.525-4.853-3.53-7.094a11.321 11.321 0 0 0-5.532-5.616c-18.457-8.626-38.652-30.465-45.005-42.324-1.945-3.629-3.362-7.288-4.209-10.875a11.258 11.258 0 0 0-8.432-8.433c-10.179-2.391-16.641-8.322-20.109-11.509-1.436-1.325-2.173-1.986-2.945-2.539a11.408 11.408 0 0 0-2.961-1.516c-4.433-1.687-10.606-3.218-16.581-4.212v12.174c3.726.688 7.463 1.599 10.5 2.574a12.755 12.755 0 0 1 4.717 2.749c3.085 2.843 9.515 8.757 19.318 12.35a12.657 12.657 0 0 1 7.594 7.633 59.714 59.714 0 0 0 3.541 7.9c7.334 13.703 27.192 34.908 46.481 45.276a12.582 12.582 0 0 1 5.402 5.609 76.819 76.819 0 0 0 2.323 4.416c2.802 4.9 2.245 11.331-1.323 15.288-15.205 16.867-23.311 38.462-24.091 64.187-.132 4.252 0 8.451.392 12.482a12.77 12.77 0 0 1-5.342 11.607 12.64 12.64 0 0 1-7.318 2.322 12.54 12.54 0 0 1-5.408-1.215c-3.362-1.574-7.064-2.818-10.988-3.693a12.75 12.75 0 0 1-7.157-4.471 51.151 51.151 0 0 0-6.555-6.783c-8.194-7.012-18.213-10.719-28.973-10.719-1.061 0-2.097.043-3.113.111v9.805c1.029-.094 2.041-.227 3.113-.227 8.135.002 15.713 2.811 21.918 8.127zM318.817 381.997a12.698 12.698 0 0 1-6.21 1.627 12.79 12.79 0 0 1-9.158-3.893c-2.469-2.568-3.845-6.148-3.685-9.58.463-9.572-1.6-18.734-5.966-26.496-2.172-3.848-7.222-11.137-16.424-16.734v8.924h-1.168v-9.617c-.705-.4-1.437-.782-2.185-1.16h-9.411v-3.602a54.985 54.985 0 0 0-6.282-1.373 12.76 12.76 0 0 1-9.278-6.605c-3.293-6.207-7.915-11.163-14.12-15.152-5.746-3.689-7.539-11.443-3.994-17.283a79.642 79.642 0 0 0 2.977-5.397 12.654 12.654 0 0 1 8.555-6.71c3.321-.767 7.266-1.761 11.271-3.345a13.415 13.415 0 0 1 2.541-.715c16.945-2.871 25.107-12.991 28.968-20.974a39.62 39.62 0 0 0 2.681-7.206 12.7 12.7 0 0 1 12.267-9.492l27.192-.146v-12.006l-37.827.148c-6.178.021-11.243 5.061-11.291 11.235-.032 3.971-.944 7.756-2.793 11.567-2.841 5.874-8.962 13.271-22.006 15.162-.968.146-1.908.41-2.789.782-4.638 1.961-9.447 2.993-14.096 3.993l-2.417.538a11.321 11.321 0 0 0-8.019 6.811c-2.577 6.4-6.41 12.605-11.399 18.443a11.332 11.332 0 0 0-2.32 10.289 11.3 11.3 0 0 0 7.157 7.734c11.236 3.978 18.346 10.482 21.739 19.886a11.291 11.291 0 0 0 10.031 7.455c20.138 1.102 29.305 12.197 32.977 18.713 4.089 7.262 5.49 15.68 4.169 25.025a11.277 11.277 0 0 0 3.841 10.193c3.172 2.715 6.105 5.893 8.714 9.449a11.383 11.383 0 0 0 9.139 4.629c2.369 0 4.634-.73 6.566-2.111 3.605-2.572 7.135-4.662 10.624-6.359v-10.721a71.551 71.551 0 0 0-8.571 4.074zM375.278 206.152a12.745 12.745 0 0 1 15.555-4.374c5.994 2.644 12.332 3.998 18.834 4.1a25.657 25.657 0 0 1 5.418-7.994c8.058-8.07 20.15-9.648 29.804-4.771 2.613-2.023 5.242-4.216 7.915-6.756 2.82-2.671 6.73-3.915 10.535-3.373.956.134 1.937.304 2.917.474v-12.153c-3.065-.479-6.059-.824-8.69-.948l-.48-.01c-3.098 0-5.985 1.206-8.131 3.396-9.774 9.966-21.994 20.152-38.515 20.156-8.062 0-15.925-2.608-22.738-7.546a11.411 11.411 0 0 0-9.619-1.753 11.277 11.277 0 0 0-7.402 6.39c-7.747 17.741-22.45 22.86-33.418 24.031l-8.851.034v12.005l9.699-.052c11.083-1.113 26.577-5.636 37.167-20.856zM448.939 355.62c-3.809 1.371-6.958 2.369-10.179 2.223a61.058 61.058 0 0 0-3.465-.092c-17.798 0-33.398 7.664-42.801 21.025a12.73 12.73 0 0 1-10.411 5.402 12.67 12.67 0 0 1-7.123-2.193c-7.826-5.303-17.193-8.108-27.092-8.108-6.566 0-12.996 1.223-19.458 3.65v10.605c6.594-3.053 13.032-4.564 19.458-4.564 11.536 0 21.871 4.861 29.101 13.688 2.601 3.176 6.802 4.709 10.827 3.959a11.343 11.343 0 0 0 8.69-7.586c4.173-12.662 16.561-26.193 38.808-26.193.968 0 1.964.033 2.884.08.609.033 1.129.041 1.621.041 4.773 0 8.499-1.336 12.811-2.883 3.646-1.303 8.339-2.918 13.645-3.539v-9.783c-7.116.645-13.122 2.77-17.316 4.268z"/><path d="m335.066 255.669 2.068-.104c.408-.023.832-.054 1.192-.095 9.903-.996 28.901-4.82 44.941-19.241a12.79 12.79 0 0 1 10.875-3.034 75.022 75.022 0 0 0 13.972 1.312c2.321 0 4.609-.117 6.882-.316-3.961-3.997-6.316-8.967-7.121-14.137-4.894-.206-9.735-.964-14.408-2.338-4.718-1.383-10.027.107-13.352 3.745-13.588 14.938-31.449 18.771-40.892 19.728l-10.812.079v14.453l5.31-.013c.461 0 .889-.016 1.345-.039zM318.914 342.918a72.067 72.067 0 0 0-4.586-9.819c-1.048-1.867-2.856-4.74-5.393-8.031h-17.189c6.53 5.703 10.467 11.629 12.412 15.074 3.025 5.387 5.177 11.273 6.395 17.498a13.092 13.092 0 0 0 6.201 8.758c3.185 1.875 7.135 2.309 10.635 1.17v-16.92c-3.814-1.081-7.027-3.903-8.475-7.73zM259.829 278.667a13.097 13.097 0 0 0-9.879 8.65 13.096 13.096 0 0 0 2.624 12.87 50.505 50.505 0 0 1 4.498 5.866c1.768 2.688 4.441 4.572 7.538 5.407v-33.954a58.876 58.876 0 0 1-4.781 1.161zM308.899 241.412a13.075 13.075 0 0 0-11.98 7.9c-.3.702-.62 1.402-.964 2.119-2.581 5.323-6.646 11.409-12.92 16.595h17.217c1.58-2.135 2.913-4.169 3.954-5.962a12.787 12.787 0 0 1 10.955-6.317l12.228-.025v-14.446zM481.033 224.096a12.657 12.657 0 0 1 5.437 5.537c.324.648.661 1.292.997 1.927 5.153 9.616 16.077 23.73 30.146 36.467h7.917V257.25h1.169v10.777h11.592v43.759c3.2-7.902 7.249-15.297 12.247-22.077a13.136 13.136 0 0 0 2.337-10.127 13.11 13.11 0 0 0-5.794-8.628c-19.91-12.786-37.519-32.911-44.626-46.184a71.585 71.585 0 0 1-2.483-5.091 13.05 13.05 0 0 0-6.559-6.646c-6.009-2.727-11.567-6.388-16.98-11.189a13.135 13.135 0 0 0-5.393-2.877c-.921-.236-1.9-.475-2.894-.696-.283-.062-.575-.042-.864-.086v17.892a12.695 12.695 0 0 1 3.998 1.926 77.25 77.25 0 0 0 9.753 6.093zM507.101 355.159c.429.373.848.742 1.265 1.115a13.033 13.033 0 0 0 8.77 3.381c1.673 0 3.31-.316 4.866-.94 4.601-1.85 7.81-6.238 8.175-11.184.566-7.848 1.824-15.332 3.692-22.465h-7.17v10.777h-1.169v-10.777h-8.817c-.036.145-.084.285-.116.434a12.63 12.63 0 0 1-6.879 8.641c-3.429 1.65-7.622 1.646-11.043-.008-9.494-4.584-19.794-6.908-30.613-6.908-.267 0-.516.023-.78.027V341.7a55.579 55.579 0 0 1 3.113-.11c13.643 0 26.334 4.691 36.706 13.569zM438.132 333.104a12.83 12.83 0 0 1-4.309.734l-.641-.004c-19.537 0-37.25 6.145-51.215 17.766a12.708 12.708 0 0 1-8.13 2.938c-1.381 0-2.749-.225-4.061-.664-7.682-2.592-15.86-3.906-24.311-3.906-4.229 0-8.482.338-12.64 1.006-.676.111-1.368.168-2.053.168-.8 0-1.584-.104-2.361-.254v16.393c6.41-1.971 12.784-2.965 19.458-2.965 9.126 0 17.801 1.893 25.788 5.625 4.953 2.322 11.191 1.158 14.957-2.777 12.419-12.912 30.157-19.701 49.366-18.924 1.58.07 3.108-.152 4.602-.65a57.272 57.272 0 0 0 1.776-.629l.527-.193c4.742-1.691 12.244-4.364 21.371-5.023V327.29c-12.651.334-23.03 3.994-28.124 5.814zM456.777 201.143c-.552.475-1.104.878-1.656 1.334a25.7 25.7 0 0 1 3.893 14.051c1.505-.614 3.105-.969 4.767-.969.84 0 1.664.11 2.477.271v-17.745c-3.422-.237-6.875.808-9.481 3.058zM361.374 173.935a7.444 7.444 0 0 1 3.473-5.071 7.55 7.55 0 0 1 6.098-.753c7.078 2.201 14.779 5.818 19.165 8.999 5.065 3.697 10.884 5.65 16.829 5.65 14.864-.008 25.96-11.563 34.065-20.002l.845-.885c1.225-1.271 2.973-2.192 4.562-2.412 1.46-.2 3.205-.301 5.185-.301 4.559 0 9.68.576 14.661 1.44v-6.848c-6.062-1.16-12.456-1.938-18.174-1.938-6.206 0-9.591.899-11.339 1.654a6.276 6.276 0 0 0-1.997 1.368c-.685.689-1.38 1.409-2.145 2.203l-.716.738c-7.542 7.857-16.922 17.631-28.464 17.631-4.33 0-8.439-1.393-12.217-4.142-6.921-5.035-23.03-12.197-33.537-12.428l-.236-.004c-3.261 0-6.089 2.693-6.302 6.005-.993 15.252-4.473 29.612-22.719 31.748v7.379l4.089-.01c16.343-1.646 25.533-11.187 28.874-30.021zM313.672 406.513c-4.205 3.508-7.291 4.977-9.139 5.59a7.46 7.46 0 0 1-2.337.375 7.442 7.442 0 0 1-6.874-4.561c-2.325-5.488-7.83-15.664-18.586-22.16a7.458 7.458 0 0 1-3.285-8.527c2.913-9.768 2.409-18.561-1.452-25.422-2.869-5.092-10.248-13.635-27.396-13.635-2.149 0-4.394.122-6.678.361-2.045.238-4.141-.432-5.718-1.826a7.455 7.455 0 0 1-2.529-5.439 20.015 20.015 0 0 0-.56-4.35c-3.85-16.046-21.983-19.191-35.29-20.159a77.016 77.016 0 0 1-4.274-.45v8.707c.072.004.129.014.201.02 11.771.853 25.631 3.241 28.256 14.189.784 3.275.248 6.803-1.589 10.483a6.443 6.443 0 0 0 .668 6.798c1.489 1.924 3.997 2.842 6.41 2.344l1.969-.426c5.974-1.318 11.084-1.958 15.624-1.958 10.051 0 16.977 3.247 20.579 9.651 4.814 8.539 1.096 19.66-1.553 25.529a6.44 6.44 0 0 0-.072 5.102 6.44 6.44 0 0 0 3.673 3.533c13.46 5.037 19.414 17.27 21.346 22.297.204.539.484 1.043.82 1.498 3.201 4.348 7.658 6.84 12.228 6.84 5.017 0 10.754-2.664 17.06-7.922 4.313-3.596 8.362-6.32 12.212-8.287v-7.451c-4.399 2.248-8.952 5.291-13.714 9.256z"/><path d="M585.136 256.083c-1.393-2.457-2.653-5.346-3.87-8.139l-.08-.176c-.852-1.951-2.016-4.624-3.097-6.603a6.373 6.373 0 0 0-4.585-3.277c-12.596-2.09-35.822-24.517-42.156-36.348-3.053-5.7-3.809-10.691-2.254-14.833a6.42 6.42 0 0 0-2.119-7.355c-2.925-2.225-9.211-5.536-14.536-5.536-8.986 0-13.736-4.358-17.554-7.862-2.86-2.639-5.806-5.355-11.447-7.524-4.213-1.62-9.975-3.247-16.157-4.483v6.839c6.471 1.183 12.624 2.841 16.854 4.463 4.241 1.639 6.214 3.451 8.942 5.958 4.041 3.727 10.787 9.953 22.742 9.953.217 0 .437.012.648.029.484.042 1.253.15 2.193.421 3.404.981 5.626 4.131 5.398 7.661-.321 4.858.991 10.068 3.899 15.483 6.343 11.847 28.161 34.128 44.161 39.459a7.502 7.502 0 0 1 4.446 4.023l.952 2.173c1.437 3.274 2.772 6.334 4.352 9.106 2.608 4.549 6.846 7.99 13.732 11.159a7.499 7.499 0 0 1 4.307 6.044 7.489 7.489 0 0 1-3.033 6.773l-2.149 1.531c-11.972 8.486-34.254 24.278-35.489 65.046-.912 30.342 14.587 44.545 25.903 54.916 6.104 5.578 11.335 10.355 14.415 17.148.525 1.164 2.121 4.695.08 8.242a7.052 7.052 0 0 1-.443.682c-1.333 1.992-3.4 3.906-6.139 5.674a7.428 7.428 0 0 1-4.036 1.188 7.444 7.444 0 0 1-4.318-1.369c-2.983-2.105-6.4-3.174-10.15-3.174-5.265 0-10.299 2.072-16.837 6.926a7.517 7.517 0 0 1-4.448 1.477 7.496 7.496 0 0 1-3.79-1.035 7.443 7.443 0 0 1-3.608-7.43c.844-6.295-.076-11.514-2.825-15.957-3.164-5.133-8.599-8.418-14.913-9.021a7.456 7.456 0 0 1-6.102-4.387c-3.772-8.449-12.375-13.008-25.567-13.553a7.468 7.468 0 0 1-6.47-4.309c-1.94-4.189-4.474-7.59-7.746-10.398-4.257-3.643-9.427-5.576-14.961-5.664v8.803c2.314.594 4.485 1.664 6.379 3.287 4.285 3.678 6.149 8.184 7.41 12.105a6.401 6.401 0 0 0 6.105 4.443l3.157-.033c13.851 0 20.514 3.883 22.274 12.988a6.413 6.413 0 0 0 7.289 5.119 16.729 16.729 0 0 1 2.602-.207c4.478 0 8.259 1.973 10.379 5.41 4.312 6.984.604 17.85-3.265 25.733a6.357 6.357 0 0 0-.613 2.185c-.295 2.893.681 7.025 2.273 9.609a6.39 6.39 0 0 0 7.45 2.715c2.917-.951 6.29-3.158 10.022-6.566 12.779-11.666 17.854-13.949 22.295-13.949 3.217 0 5.813 1.291 7.934 3.947 1.713 2.158 4.726 2.988 7.322 1.996 2.702-1.045 11.877-5.037 16.421-12.553 2.91-4.824 3.058-9.951.453-15.678-3.733-8.238-9.815-13.801-16.253-19.691-11.336-10.379-24.171-22.133-23.367-48.902 1.112-36.891 20.566-50.669 32.19-58.901l.483-.346c1.222-.87 2.373-1.692 3.401-2.489 1.769-1.372 3.605-2.593 5.482-3.741v-17.455c-9.158-3.241-16.847-6.331-19.968-11.77zM215.036 255.146a7.504 7.504 0 0 1 4.517-5.056c3.042-1.178 7.699-2.253 11.416-3.055 4.901-1.055 9.531-2.051 13.555-4.001a7.444 7.444 0 0 1 2.521-.717c7.842-.771 13.012-3.953 15.809-9.73 2.417-4.993 2.324-10.159-.284-16.261a7.428 7.428 0 0 1 .192-6.29 7.468 7.468 0 0 1 4.941-3.907 97.009 97.009 0 0 1 11.328-1.998 7.62 7.62 0 0 1 .824-.038l47.534-.122v-7.295l-51.515.066c-.227 0-.452.012-.676.034-9.043.95-19.314 3.501-24.975 6.199a6.39 6.39 0 0 0-3.401 4.01 6.403 6.403 0 0 0 .744 5.205c5.658 8.951 6.81 13.192 4.745 17.451-2.081 4.302-6.041 5.032-9.591 5.378-.796.068-1.844.19-2.333.296a6.08 6.08 0 0 0-1.86.679c-3.293 1.824-7.79 2.8-12.552 3.835l-.152.032c-11.276 2.44-20.005 4.854-21.386 11.725-1.852 9.259-7.75 17.924-14.881 24.848v12.561c10.591-7.621 21.718-19.633 25.48-33.849zM165.565 291.249a6.35 6.35 0 0 0-4.754 5.458 11.047 11.047 0 0 0 1.081 6.226c3.233 6.535 12.695 10.75 26.64 11.976v-8.745c-.404-.061-.832-.107-1.224-.174a7.467 7.467 0 0 1-6.09-5.958 7.493 7.493 0 0 1 3.461-7.782 73.311 73.311 0 0 0 3.853-2.539v-12.273c-7.498 6.995-16.193 12.042-22.967 13.811zM615.068 275.423a6.417 6.417 0 0 0-4.229-5.562l-2.905-1.01-1.805-.637v16.478a154.353 154.353 0 0 1 5.594-3.14 6.395 6.395 0 0 0 3.345-6.129zM452.616 373.192c-4.873 1.748-9.814 3.52-16.316 3.52a39.08 39.08 0 0 1-2.128-.064 47.524 47.524 0 0 0-2.373-.055c-18.733 0-28.788 12.283-30.201 23.693a27.329 27.329 0 0 0 4.205 18.176 7.485 7.485 0 0 1 .948 5.992 7.46 7.46 0 0 1-3.801 4.717 151.323 151.323 0 0 0-8.271 4.633c-1.608.963-3.597 1.453-5.913 1.453-5.402 0-9.772-2.447-11.404-3.5a7.48 7.48 0 0 1-3.401-5.785c-1.28-19.893-13.172-33.26-29.589-33.26-5.13 0-10.427 1.363-15.961 4.033v7.43c4.406-2.105 8.539-3.164 12.452-3.164 12.956 0 21.754 11.537 21.887 28.709.008.902.209 1.811.584 2.623 2.429 5.299 12.027 11.205 21.918 11.205 3.77 0 7.11-.861 9.931-2.559 7.086-4.248 13.04-7.15 18.202-8.873a6.456 6.456 0 0 0 4.32-5.262 6.437 6.437 0 0 0-2.841-6.182c-6.47-4.238-9.923-11.508-9.007-18.967.961-7.76 7.41-16.82 22.427-16.82.66 0 1.337.021 1.988.053 9.212.525 15.709-1.838 21.407-3.883 3.996-1.428 7.771-2.775 11.707-2.775.977 0 1.933.094 2.869.266v-8.508c-5.028.131-9.601 1.715-13.639 3.154z"/><path d="M203.524 251.403c1.493-7.422 10.491-9.935 22.102-12.449l.148-.032c4.697-1.019 9.127-1.98 12.299-3.737a6.937 6.937 0 0 1 2.128-.778c.537-.118 1.641-.244 2.433-.311 3.289-.322 6.966-.987 8.834-4.857 1.897-3.908.756-7.93-4.689-16.55a7.346 7.346 0 0 1-.852-5.96 7.326 7.326 0 0 1 3.896-4.592c5.742-2.738 16.137-5.321 25.276-6.284.26-.025.512-.037.772-.037l51.515-.064v-8.088c-1.064.231-2.18.426-3.393.546l-52.596.004c-.228.026-31.329 3.114-36.639 14.092-1.312 2.711-.904 5.645 1.252 8.975 6.31 9.757 7.046 12.41 6.222 14.12-.705 1.445-2.477 1.612-4.533 1.809-1.956.187-4.397.419-6.678 1.723-2.521 1.442-6.558 2.314-11.231 3.325-10.899 2.356-24.467 5.289-26.82 17.053-.604 3.035-1.812 6.065-3.417 9.015v16.833c6.713-6.692 12.211-14.949 13.971-23.756zM315.769 413.706c-6.474 5.402-12.416 8.139-17.653 8.139-4.87 0-9.6-2.629-12.973-7.215a7.326 7.326 0 0 1-.944-1.717c-1.888-4.908-7.698-16.857-20.806-21.764a7.37 7.37 0 0 1-4.201-4.043 7.394 7.394 0 0 1 .08-5.842c2.577-5.709 6.202-16.508 1.592-24.689-3.425-6.092-10.079-9.18-19.77-9.18-4.469 0-9.518.635-15.428 1.938l-1.973.426c-2.785.574-5.633-.48-7.338-2.684a7.384 7.384 0 0 1-.764-7.782c1.74-3.479 2.252-6.794 1.517-9.851-2.489-10.363-15.961-12.648-27.424-13.48-.041-.004-.081-.01-.129-.014v6.332c10.499 1.393 16.197 4.303 17.293 8.871 1.945 8.105-12.284 18.248-17.293 21.535v6.143c1.265.352 3.069.607 5.746.607 6.106 0 15.157-1.309 26.896-3.885 16.025-3.52 26.052-1.932 29.76 4.646 5.114 9.078-3.881 24.105-4.265 24.742v-.002c.008 0-1.344 2.863-.04 5.988 1.192 2.85 4.177 5.09 8.875 6.654 14.284 4.766 19.061 19.801 19.261 20.438.024 0 6.486 11.48 18.966 11.48 6.674 0 13.924-3.223 21.55-9.58 3.946-3.289 7.643-5.793 11.083-7.566v-6.602c-3.656 1.922-7.509 4.537-11.618 7.957zM350.203 164.779c.244-3.788 3.489-6.871 7.229-6.871l.261.004c10.683.233 27.039 7.498 34.058 12.604 3.617 2.631 7.542 3.966 11.672 3.966 11.147 0 20.374-9.615 27.792-17.34l.72-.748c.768-.797 1.469-1.519 2.152-2.209a7.158 7.158 0 0 1 2.289-1.568c1.828-.79 5.346-1.73 11.707-1.73 5.718 0 12.107.773 18.174 1.927v-8.383c-6.317-1.168-12.92-1.948-18.854-1.948-8.642 0-14.811 1.601-17.84 4.628-1.073 1.072-2.19 2.238-3.35 3.444-6.822 7.105-15.312 15.945-24.268 15.947-2.996 0-5.885-.999-8.59-2.964-7.818-5.685-26.036-13.907-38.539-13.907-7.926 0-12.127 3.265-12.488 9.706-1 17.998-4.533 25.622-13.917 28.104v8.215c17.474-2.092 20.827-16.048 21.792-30.877zM592.609 251.911c-1.257-2.196-2.396-4.815-3.604-7.588-3.186-7.311-6.422-14.927-11.797-14.118-.18.024-.371.038-.571.038-7.302.002-31.273-19.804-38.707-33.686-2.541-4.744-2.974-8.429-1.292-10.952 1.656-2.484 1.729-5.169.224-7.984-3.777-7.056-16.193-12.739-23.951-12.739-6.602 0-9.772-2.916-13.443-6.294-3.205-2.947-6.835-6.288-13.725-8.94-4.785-1.836-11.407-3.675-18.462-5.035V153c6.311 1.252 12.196 2.912 16.493 4.562 5.806 2.234 8.818 5.014 11.732 7.699 3.705 3.402 8.307 7.628 16.934 7.628 5.553 0 12.071 3.423 15.097 5.724 2.568 1.946 3.568 5.409 2.433 8.424-1.461 3.879-.725 8.613 2.195 14.064 6.259 11.686 29.125 33.819 41.492 35.872a7.287 7.287 0 0 1 5.249 3.751c1.098 2.013 2.273 4.706 3.134 6.672l.076.177c1.213 2.772 2.46 5.638 3.829 8.053 2.92 5.097 10.314 8.105 19.162 11.245v-7.477c-5.96-2.261-10.853-4.602-12.498-7.483zM632.161 273.51c.544-4.388-10.3-8.181-19.869-11.527a363.343 363.343 0 0 1-6.163-2.201v7.451c.7.245 1.393.491 2.109.742l2.908 1.012a7.358 7.358 0 0 1 4.85 6.365 7.328 7.328 0 0 1-3.834 7.017c-2.048 1.103-4.064 2.21-6.033 3.395v7.807c3.622-2.742 7.666-4.945 11.6-7.064 7.366-3.973 13.732-7.404 14.432-12.997zM610.007 441.376c4.488-6.975 4.901-14.611 1.224-22.699-1.445-3.178-3.189-5.977-5.102-8.557v35.984c1.429-1.462 2.769-3.009 3.878-4.728zM600.191 289.784c-1.04.807-2.201 1.635-3.429 2.511l-.488.347c-11.482 8.132-30.701 21.744-31.798 58.174-.788 26.344 11.876 37.941 23.052 48.178 6.526 5.965 12.671 11.592 16.489 20.004a23.66 23.66 0 0 1 1.088 2.928v-13.174c-3.645-4.611-7.842-8.471-11.965-12.24-11.007-10.074-22.389-20.49-21.656-44.746 1.035-34.285 18.429-46.611 29.937-54.768a136.66 136.66 0 0 0 3.685-2.677v-7.91c-1.681 1.045-3.33 2.143-4.915 3.373zM155.998 285.047c-3.713.412-7.767 6.109-7.639 13.116.093 4.917 2.929 21.148 35.606 23.539 1.617.117 3.125.272 4.565.443v-6.305c-14.324-1.248-24.083-5.648-27.472-12.496a12.043 12.043 0 0 1-1.177-6.746 7.29 7.29 0 0 1 5.446-6.25c6.854-1.789 15.688-6.994 23.203-14.179v-16.088c-7.888 13.022-23.469 23.957-32.532 24.966zM186.903 357.146c.172.387.625.891 1.628 1.328v-5.127a25.5 25.5 0 0 1-.533.334c-.547.646-1.619 2.281-1.095 3.465zM463.388 379.208c-3.777 0-7.479 1.322-11.395 2.723-5.774 2.072-12.424 4.451-21.768 3.936a40.243 40.243 0 0 0-1.94-.051c-14.412 0-20.594 8.621-21.506 16.004-.868 7.105 2.425 14.031 8.599 18.076a7.383 7.383 0 0 1 3.249 7.078 7.386 7.386 0 0 1-4.945 6.021c-5.098 1.703-10.991 4.578-18.017 8.789-2.969 1.787-6.475 2.691-10.411 2.691-10.243 0-20.214-6.189-22.763-11.746a7.388 7.388 0 0 1-.668-3.002c-.129-16.621-8.551-27.789-20.958-27.789-3.893 0-8.026 1.105-12.452 3.279v6.609c3.586-1.717 6.882-2.592 9.851-2.592 10.871 0 15.737 11.582 15.737 23.06 0 10.025 14.864 20.238 29.453 20.238 5.034 0 9.567-1.19 13.476-3.533 17.721-10.639 24.867-10.639 33.146-10.639 2.809 0 3.528-2.436 3.705-3.885.616-4.984-3.245-13.068-12.096-15.285-7.946-1.986-11.476-9.207-10.763-14.992.712-5.777 5.789-11.984 18.032-11.336 10.664.574 18.302-2.168 24.32-4.318 3.673-1.312 6.841-2.445 9.714-2.445 1.161 0 2.249.189 3.27.57v-7.164a14.88 14.88 0 0 0-2.87-.297zM586.628 448.479a7.37 7.37 0 0 1-2.638.488 7.305 7.305 0 0 1-5.744-2.775c-1.934-2.422-4.291-3.598-7.207-3.598-4.213 0-9.11 2.242-21.67 13.707-3.83 3.496-7.314 5.773-10.36 6.766a7.356 7.356 0 0 1-2.279.365 7.323 7.323 0 0 1-6.251-3.475c-1.684-2.74-2.716-7.121-2.404-10.191a7.296 7.296 0 0 1 .704-2.502c3.766-7.674 7.395-18.211 3.306-24.836-1.973-3.205-5.377-4.969-9.587-4.969-.8 0-1.624.064-2.456.193a7.34 7.34 0 0 1-8.347-5.859c-1.656-8.576-8.047-12.236-21.358-12.236l-3.105.033c-3.253 0-6.058-2.045-7.041-5.088-1.226-3.799-3.025-8.156-7.135-11.685-1.721-1.473-3.686-2.457-5.774-3.029v7.375c.657.344 1.293.742 1.901 1.262 3.605 3.092 4.829 6.988 5.909 10.428 1.465 4.652 2.521 8.012 8.646 8.012 1.189 0 2.354-.012 3.489-.023 1.084-.012 2.137-.023 3.161-.023 8.378 0 15.401.68 16.445 9.029l.14 1.133c.844 6.912 1.373 9.717 6.061 9.717 1.676 0 3.846-.371 6.63-1.131 1.333-.361 2.54-.545 3.598-.545 2.256 0 3.9.811 4.889 2.414 3.241 5.248-2.172 16.975-3.908 20.445-1.833 3.664-1.337 11.855 2.304 17.752 1.797 2.906 5.062 6.371 10.423 6.371 5.025 0 10.852-2.99 17.309-8.892 12.055-11.004 16.009-12.49 18.285-12.49 2.469 0 3.429 1.971 4.277 3.707.972 1.996 1.893 3.881 4.905 3.881 4.918 0 15.649-3.842 23.359-11.125v-14.998a17.407 17.407 0 0 1-1.597 3.453c-4.698 7.766-14.108 11.867-16.88 12.939zM609.794 368.478v-11.611c0-.469-.185-.912-.516-1.24l-3.149-3.147v17.75h1.912a1.756 1.756 0 0 0 1.753-1.752z"/><path d="M317.497 421.347c-7.974 6.643-15.625 10.01-22.742 10.01-13.628 0-20.39-12.104-20.67-12.621-.116-.318-4.778-14.934-18.149-19.393-5.241-1.746-8.607-4.35-10.007-7.732-1.633-3.94.068-7.422.14-7.568.128-.213 8.851-14.803 4.269-22.932-3.24-5.754-12.739-7.035-27.74-3.746-11.872 2.607-21.054 3.93-27.296 3.93-2.313 0-4.209-.186-5.746-.547v9.482h15.741v9.115c0 .973.785 1.752 1.752 1.752h12.58v10.484c0 .963.78 1.748 1.749 1.748h7.886v9.986c0 .465.184.908.512 1.236l13.075 13.08v7.303c0 .969.785 1.744 1.753 1.744h15.46l24.808 24.824c.328.322.772.506 1.236.506h25.448c.468 0 .908-.184 1.24-.506l14.592-14.602v-22.449c-3.073 1.681-6.366 3.954-9.891 6.896zM205.041 331.583c-.868-3.615-6.222-6.134-15.485-7.414v26.291c6.462-4.377 16.917-12.912 15.485-18.877zM340.476 159.232c.417-7.498 5.374-11.461 14.341-11.461 13.063 0 31.405 8.284 39.631 14.264 2.413 1.755 4.866 2.606 7.498 2.606 8.163 0 16.349-8.523 22.927-15.374a246.112 246.112 0 0 1 3.377-3.471c3.434-3.433 9.879-5.174 19.153-5.174 5.935 0 12.528.771 18.854 1.925v-27.353l-12.372 12.368h-5.466l-14.812-14.809a1.746 1.746 0 0 0-2.98 1.24v22.711h-11.343a1.74 1.74 0 0 0-1.236.512l-19.277 19.27-21.487-21.494a1.759 1.759 0 0 0-1.236-.517h-8.402c-.969 0-1.749.789-1.749 1.753v5.418h-10.131l-11.595-11.6a1.76 1.76 0 0 0-1.304-.512 1.746 1.746 0 0 0-1.256.616l-13.196 15.439v39.944c7.248-2.05 11.041-8.012 12.061-26.301zM581.746 460.064c-4.173 0-5.562-2.844-6.574-4.92-.855-1.752-1.36-2.666-2.608-2.666-2.648 0-8.062 3.816-17.029 12.006-6.813 6.223-13.059 9.377-18.565 9.377-4.921 0-9.07-2.506-12.003-7.252-3.645-5.902-4.737-14.859-2.389-19.56 3.204-6.395 6.17-15.113 3.992-18.637-.992-1.611-3.151-1.941-6.417-1.053-13.384 3.656-13.992-1.705-15.024-10.152l-.136-1.129c-.788-6.293-5.338-7.402-14.604-7.402-1.016 0-2.065.012-3.142.021-1.14.014-2.311.025-3.509.025-7.489 0-8.91-4.523-10.415-9.311-1.057-3.359-2.148-6.83-5.35-9.576-.228-.193-.46-.342-.692-.504v23.936l5.366 5.369a1.74 1.74 0 0 0 1.236.512h15.589l3.189 3.193-8.15 8.15a1.726 1.726 0 0 0 0 2.472l9.387 9.391c.328.324.772.512 1.236.512h16.037v7.402l-9.619 9.629a1.723 1.723 0 0 0-.512 1.23c0 .465.184.912.512 1.242l16.541 16.531v12.123c0 .969.779 1.75 1.748 1.75h8.399c.964 0 1.753-.781 1.753-1.75v-4.176h12.306v7.389c0 .965.789 1.75 1.753 1.75h15.073c.46 0 .908-.184 1.231-.514l8.654-8.65c.333-.326.517-.768.517-1.232v-15.053h9.871l2.461 2.449c.323.328.769.514 1.237.514h18.275a1.76 1.76 0 0 0 1.241-.514l2.493-2.492v-20.828c-7.971 6.907-18.294 10.398-23.359 10.398zM602.496 298.511c-11.212 7.945-28.148 19.95-29.156 53.311-.704 23.404 9.863 33.076 21.054 43.318 3.648 3.34 7.354 6.756 10.712 10.697v-27.211l-4.946-4.943v-3.453h4.946v-18.775l-5.463-5.459a1.73 1.73 0 0 0-1.239-.512h-10.352v-15.568l17.054-17.049v-16.228c-.829.603-1.693 1.222-2.61 1.872zM645.909 291.663a1.75 1.75 0 0 0 1.744-1.753v-25.76a1.75 1.75 0 0 0-.509-1.236l-22.79-22.794a1.745 1.745 0 0 0-1.232-.513h-13.497l-3.497-3.499v21.686c2.189.822 4.485 1.633 6.778 2.435 11.224 3.925 21.827 7.635 21.095 13.51-.817 6.546-7.9 10.361-15.394 14.4-4.025 2.169-8.187 4.412-11.791 7.221-.216.168-.465.344-.688.514v15.967l20.182-20.178zM588.284 218.258a1.749 1.749 0 0 0-1.232-.513h-11.884l-16.521-16.517v-4.449h14.564a1.75 1.75 0 0 0 1.753-1.744v-29.28c0-.969-.788-1.749-1.753-1.749H551.82l-11.968-11.968a1.76 1.76 0 0 0-1.236-.512h-33.622l-37.534-37.535-.181.181v28.558c7.307 1.391 14.185 3.287 19.126 5.185 7.223 2.779 11.155 6.398 14.32 9.307 3.661 3.369 6.306 5.804 12.184 5.804 8.438 0 21.454 5.994 25.588 13.72 1.828 3.415 1.721 6.837-.317 9.89-1.584 2.379-.119 6.231 1.385 9.047 7.523 14.043 30.933 32.705 37.071 32.705.108 0 .212-.009.308-.021 6.731-1 10.309 7.295 13.761 15.215 1.188 2.725 2.308 5.298 3.517 7.408 1.308 2.29 5.662 4.395 10.884 6.411v-22.315zM169.734 247.162a1.747 1.747 0 0 0-.512 1.24v10.48h-18.134a1.75 1.75 0 0 0-1.24.512l-24.832 24.827a1.756 1.756 0 0 0-.512 1.24v8.154c0 .464.184.913.512 1.232l3.193 3.197v16.569c0 .464.188.912.512 1.24l16.801 16.801c.328.332.772.516 1.237.516h14.559v35.307c0 .961.781 1.752 1.749 1.752h25.463v-9.758c-1.712-.565-2.821-1.42-3.329-2.582-1.153-2.609 1.4-5.438 1.508-5.557l.204-.166a64.063 64.063 0 0 0 1.616-1.025v-27.127a96.485 96.485 0 0 0-4.702-.461c-34.242-2.506-37.23-20.041-37.326-25.357-.145-7.554 4.113-14.419 9.29-14.994 8.323-.926 25.692-12.477 32.738-26.825v-28.011zM191.156 248.944c2.589-12.957 17.417-16.164 28.245-18.506 4.521-.976 8.43-1.82 10.703-3.12 2.628-1.503 5.289-1.757 7.422-1.959 1.436-.136 2.788-.266 3.037-.771.792-1.636-4.225-9.384-6.11-12.301-2.501-3.863-2.957-7.494-1.364-10.793 5.762-11.912 36.899-15.009 38.223-15.135l52.587-.004c1.24-.124 2.4-.3 3.489-.546v-39.018l-6.042 7.074c-.271.315-.42.72-.42 1.14v19.994h-47.398v-19.994c0-.968-.78-1.752-1.749-1.752h-9.386a1.75 1.75 0 0 0-1.241.512l-16.8 16.805a1.736 1.736 0 0 0-.512 1.236v9.119h-13.568c-.464 0-.912.188-1.24.52L200.376 210.1a1.757 1.757 0 0 0-.516 1.241v13.567h-7.142c-.464 0-.904.185-1.24.513l-1.921 1.919v26.721c.679-1.679 1.252-3.384 1.599-5.117zM626.326 449.276c.329-.328.517-.775.517-1.24v-40.523c0-.965-.78-1.748-1.752-1.748H617.7v-13.816c0-.469-.184-.912-.509-1.24l-11.062-11.057v27.424c2.573 3.178 4.914 6.699 6.79 10.832 3.901 8.578 3.434 17.039-1.352 24.477-1.517 2.355-3.413 4.412-5.438 6.301v20.787zM462.987 387.958c-2.553 0-5.582 1.082-9.087 2.336-6.174 2.205-14.04 5.016-25.043 4.428-10.963-.602-15.484 4.74-16.093 9.707-.615 4.994 2.461 11.234 9.367 12.963 9.891 2.475 14.192 11.646 13.491 17.312-.42 3.402-2.544 5.514-5.549 5.514-8.002 0-14.912 0-32.193 10.375-4.197 2.521-9.051 3.797-14.428 3.797-15.801 0-31.309-10.941-31.309-22.094 0-7.875-2.925-21.201-13.88-21.201-2.921 0-6.218.951-9.851 2.803v21.98l4.87-4.869h8.895v34.068a1.75 1.75 0 0 0 1.752 1.754h66.948c.472 0 .912-.189 1.244-.51l14.552-14.559h12.124a1.73 1.73 0 0 0 1.236-.518l18.289-18.281c.324-.324.508-.771.508-1.236v-5.189c0-.963-.776-1.748-1.744-1.748h-13.852l-13.056-13.057v-1.728l33.918.057c.652.668 1.045 1.068 1.881 1.9l.28.281v-23.521a7.218 7.218 0 0 0-3.27-.764z"/><path d="M368.98 190.246a13.123 13.123 0 0 1 8.615-7.438 13.243 13.243 0 0 1 11.195 2.04c6.498 4.706 13.984 7.194 21.65 7.194 15.833-.004 27.684-9.911 37.187-19.6 2.497-2.551 5.857-3.955 9.459-3.955l.56.012c2.613.124 5.574.46 8.611.929v-7.885c-4.981-.872-10.102-1.454-14.661-1.454-1.939 0-3.641.098-5.058.292-1.392.191-2.932 1.01-4.017 2.135l-.84.88c-8.227 8.565-19.481 20.284-34.742 20.292-6.143 0-12.151-2.015-17.373-5.825-4.313-3.13-11.907-6.69-18.901-8.862a6.596 6.596 0 0 0-5.338.655 6.519 6.519 0 0 0-3.033 4.441c-3.429 19.306-12.88 29.089-29.745 30.787l-4.137.01v8.309l8.747-.034c10.387-1.115 24.431-6.001 31.821-22.923zM490.828 385.694a6.541 6.541 0 0 0 5.669 3.773c13.573.56 22.446 5.307 26.376 14.102a6.535 6.535 0 0 0 5.342 3.842c6.606.629 12.295 4.076 15.616 9.457 2.861 4.633 3.829 10.055 2.953 16.57a6.524 6.524 0 0 0 3.161 6.504c2.224 1.305 5.142 1.143 7.213-.387 6.71-4.98 11.909-7.107 17.39-7.107 3.945 0 7.542 1.125 10.688 3.34 2.141 1.514 5.117 1.58 7.314.164 2.628-1.697 4.608-3.523 5.882-5.426.148-.209.283-.408.395-.609 1.806-3.141.361-6.344-.115-7.396-3.004-6.621-8.171-11.34-14.148-16.805-11.499-10.537-27.183-24.906-26.255-55.674 1.252-41.229 23.774-57.197 35.879-65.773l2.148-1.53a6.549 6.549 0 0 0 2.649-5.928 6.557 6.557 0 0 0-3.773-5.292c-7.07-3.255-11.432-6.813-14.149-11.541-1.601-2.816-2.949-5.897-4.376-9.159l-.969-2.206a6.575 6.575 0 0 0-3.894-3.519c-16.197-5.397-38.271-27.927-44.681-39.899-2.994-5.574-4.346-10.95-4.014-15.983.201-3.091-1.744-5.85-4.725-6.71a10.995 10.995 0 0 0-2.014-.388 7.102 7.102 0 0 0-.572-.026c-12.318 0-19.229-6.378-23.362-10.188-2.661-2.447-4.581-4.208-8.658-5.782-4.153-1.592-10.175-3.223-16.518-4.391v7.857c6.19 1.013 12.62 2.593 17.21 4.338 1.191.401 2.349.996 3.413 1.753.855.613 1.632 1.31 3.072 2.643 3.393 3.112 9.623 8.83 19.326 11.109 4.905 1.153 8.666 4.915 9.814 9.814.809 3.429 2.168 6.938 4.042 10.425 6.228 11.631 26.039 33.054 44.148 41.516a13.211 13.211 0 0 1 6.445 6.54c.985 2.197 2.085 4.558 3.445 6.933a28.31 28.31 0 0 0 3.925 5.339 13.277 13.277 0 0 1 3.514 9.543 13.099 13.099 0 0 1-4.326 9.203c-17.271 15.632-26.06 35.944-26.859 62.099-.405 13.389 1.944 24.928 7.183 35.273 1.352 2.043 2.092 4.535 2.092 7.123 0 3.523-1.365 6.834-3.85 9.318a13.098 13.098 0 0 1-9.33 3.855h-.072c-2.281 0-4.536-.594-6.526-1.719a27.654 27.654 0 0 0-6.261-2.619 13.195 13.195 0 0 1-7.227-5.141c-4.993-7.15-12.927-11.594-23.582-13.205a13.239 13.239 0 0 1-8.999-5.701 37.136 37.136 0 0 0-6.773-7.65c-5.866-5.023-13.024-7.68-20.711-7.68-1.068 0-2.084.131-3.113.228v6.176c5.758.088 11.136 2.098 15.565 5.887 3.378 2.896 5.986 6.4 7.983 10.71zM317.846 396.519a13.079 13.079 0 0 1-7.647 2.455 13.245 13.245 0 0 1-10.635-5.387c-2.524-3.441-5.361-6.516-8.426-9.139a13.12 13.12 0 0 1-4.473-11.863c1.264-8.932-.064-16.957-3.946-23.854-3.489-6.186-12.211-16.719-31.46-17.77a13.146 13.146 0 0 1-11.679-8.678c-3.193-8.849-9.931-14.986-20.61-18.766a13.184 13.184 0 0 1-5.63-20.981c4.857-5.688 8.586-11.722 11.091-17.934a13.177 13.177 0 0 1 9.339-7.93l2.417-.54c4.578-.982 9.299-1.997 13.772-3.892a13.458 13.458 0 0 1 3.241-.905c12.243-1.775 17.965-8.667 20.605-14.135 1.729-3.559 2.577-7.084 2.608-10.775.057-7.185 5.954-13.05 13.14-13.076l37.835-.145v-8.309l-47.534.124c-.24 0-.48.008-.72.034a95.684 95.684 0 0 0-11.215 1.979 6.52 6.52 0 0 0-4.326 3.421 6.487 6.487 0 0 0-.168 5.506c2.72 6.368 2.809 11.777.264 17.03-2.949 6.093-8.363 9.445-16.549 10.252-.78.079-1.521.29-2.209.626-4.129 2-8.811 3.009-13.768 4.075-3.685.796-8.294 1.856-11.275 3.011a6.597 6.597 0 0 0-3.957 4.429c-3.889 14.693-15.485 27.064-26.376 34.769v15.219a72.69 72.69 0 0 0 4.342.462c13.596.99 32.133 4.232 36.126 20.869.36 1.476.556 3.006.584 4.547a6.526 6.526 0 0 0 2.216 4.761c1.385 1.223 3.186 1.815 5.002 1.601a65.65 65.65 0 0 1 6.779-.366c17.621 0 25.235 8.839 28.204 14.108 3.989 7.086 4.518 16.127 1.532 26.145a6.533 6.533 0 0 0 2.877 7.463c10.98 6.633 16.593 17.004 18.962 22.598a6.519 6.519 0 0 0 6.018 3.99c.692 0 1.38-.109 2.044-.328 1.773-.586 4.742-2.004 8.835-5.42 4.966-4.137 9.719-7.285 14.312-9.578v-5.498a72.75 72.75 0 0 0-9.542 5.795zM185.159 293.045a6.55 6.55 0 0 0-3.03 6.812 6.538 6.538 0 0 0 5.33 5.216c.344.058.72.1 1.072.151v-14.37a72.382 72.382 0 0 1-3.372 2.191zM453.301 366.401c-4.537 1.625-8.406 3.014-13.5 3.014-.524 0-1.068-.01-1.717-.041a51.496 51.496 0 0 0-2.788-.08c-21.255 0-33.074 12.871-37.047 24.916a13.184 13.184 0 0 1-10.111 8.83c-4.669.891-9.575-.906-12.607-4.605-6.866-8.389-16.692-13.008-27.66-13.008-6.397 0-12.836 1.596-19.458 4.781v5.502c5.518-2.605 10.812-3.926 15.961-3.926 16.938 0 29.197 13.713 30.517 34.127a6.563 6.563 0 0 0 2.977 5.066c1.56 1.008 5.746 3.352 10.9 3.352 2.145 0 3.973-.447 5.433-1.322a151.13 151.13 0 0 1 8.326-4.66 6.55 6.55 0 0 0 2.501-9.379 28.23 28.23 0 0 1-4.349-18.793c1.46-11.805 11.823-24.512 31.121-24.512.804 0 1.641.018 2.421.057.739.039 1.42.065 2.08.065 6.338 0 11.203-1.744 15.908-3.432 4.206-1.5 8.863-3.113 14.049-3.242v-6.115c-5.023.62-9.504 2.173-12.957 3.405z"/><path d="M466.257 253.739h1.023v14.287h-1.023zM433.274 204.682c-6.073 0-11.003 4.938-11.003 11.023 0 6.081 4.93 11.011 11.003 11.011 6.103 0 11.031-4.93 11.031-11.011.001-6.086-4.928-11.023-11.031-11.023z"/><path d="M726.544 65.022H65.456v481.955H726.543V65.022Zm-3.297 478.659H68.761V68.323H723.245v475.358z"/><path d="M267.284 270.597h267.284v51.224H267.284z" style="fill:#000;stroke:#e300ff;stroke-width:0"/><g aria-label="NULL-ISLAND" style="font-size:37.3333px;line-height:1.25;letter-spacing:0;word-spacing:0"><path d="M278.532 310.627v-26.724h5.25l10.938 17.846v-17.846h5.013v26.724h-5.415L283.545 293.2v17.427zM305.402 283.903h5.396v14.474q0 3.445.2 4.466.346 1.64 1.64 2.643 1.313.985 3.574.985 2.297 0 3.463-.93 1.167-.948 1.404-2.315.237-1.367.237-4.54v-14.783h5.396v14.036q0 4.813-.438 6.8-.437 1.987-1.622 3.354-1.167 1.367-3.136 2.188-1.968.802-5.14.802-3.828 0-5.815-.875-1.97-.894-3.118-2.297-1.148-1.422-1.513-2.972-.528-2.297-.528-6.78zM332.545 310.627v-26.505h5.396v22.002h13.416v4.503zM355.35 310.627v-26.505h5.396v22.002h13.416v4.503zM377.389 303.5v-5.123h10.062v5.122zM390.277 310.627v-26.724h5.396v26.724zM399.446 301.932l5.25-.51q.474 2.642 1.914 3.882 1.458 1.24 3.92 1.24 2.606 0 3.919-1.094 1.33-1.112 1.33-2.589 0-.948-.565-1.604-.547-.674-1.932-1.167-.948-.328-4.32-1.166-4.339-1.076-6.089-2.643-2.46-2.206-2.46-5.378 0-2.042 1.148-3.81 1.166-1.786 3.336-2.716 2.187-.93 5.268-.93 5.031 0 7.565 2.206 2.552 2.206 2.68 5.888l-5.396.237q-.347-2.06-1.495-2.953-1.13-.912-3.409-.912-2.352 0-3.682.966-.857.62-.857 1.66 0 .947.802 1.622 1.02.856 4.958 1.786t5.815 1.932q1.896.985 2.954 2.717 1.075 1.713 1.075 4.247 0 2.297-1.276 4.302-1.276 2.005-3.61 2.99-2.333.966-5.814.966-5.068 0-7.784-2.334-2.716-2.351-3.245-6.835zM425.86 310.627v-26.505h5.396v22.002h13.417v4.503zM472.618 310.627h-5.87l-2.333-6.07h-10.683l-2.205 6.07h-5.724l10.409-26.724h5.705zm-9.935-10.573L459 290.137l-3.61 9.917zM475.534 310.627v-26.724h5.25l10.938 17.846v-17.846h5.013v26.724h-5.414L480.547 293.2v17.427zM502.422 283.903h9.862q3.336 0 5.086.51 2.352.693 4.029 2.461 1.677 1.769 2.552 4.339.875 2.552.875 6.307 0 3.3-.82 5.688-1.003 2.916-2.862 4.72-1.404 1.368-3.792 2.134-1.786.565-4.776.565h-10.154zm5.396 4.52v17.701h4.029q2.26 0 3.263-.255 1.312-.328 2.17-1.112.874-.784 1.421-2.57.547-1.805.547-4.904t-.547-4.758q-.547-1.659-1.531-2.588-.985-.93-2.498-1.258-1.13-.255-4.43-.255z" style="font-weight:700;font-family:Arial;-inkscape-font-specification:&quot;Arial Bold&quot;;fill:#fff"/></g></svg>